<?xml version="1.0" encoding="UTF-8" standalone="no"?>
<svg
   xmlns:dc="http://purl.org/dc/elements/1.1/"
   xmlns:cc="http://creativecommons.org/ns#"
   xmlns:rdf="http://www.w3.org/1999/02/22-rdf-syntax-ns#"
   xmlns:svg="http://www.w3.org/2000/svg"
   xmlns="http://www.w3.org/2000/svg"
   id="svg5805"
   version="1.1"
   viewBox="0 0 50 50"
   height="50mm"
   width="50mm">
  <defs
     id="defs5799" />
  <metadata
     id="metadata5802">
    <rdf:RDF>
      <cc:Work
         rdf:about="">
        <dc:format>image/svg+xml</dc:format>
        <dc:type
           rdf:resource="http://purl.org/dc/dcmitype/StillImage" />
        <dc:title></dc:title>
      </cc:Work>
    </rdf:RDF>
  </metadata>
  <g
     transform="translate(0,-247)"
     id="layer1">
    <g
       transform="matrix(0.08969028,0,0,0.10057124,0,243.96718)"
       id="g6418"
       style="fill:#bebebe;fill-opacity:1">
	<g
   id="g6416"
   style="fill:#bebebe;fill-opacity:1">
		<path
   id="path6414"
   d="m 537.911,30.156 h -5.704 c -3.151,0 -5.703,2.674 -5.703,5.979 v 5.979 c 0,10.802 -8.758,19.56 -19.56,19.56 h -52.161 c -10.802,0 -19.56,-8.758 -19.56,-19.56 v -5.979 c 0,-3.299 -2.552,-5.979 -5.704,-5.979 h -5.703 -290.149 -5.704 c -3.152,0 -5.704,2.674 -5.704,5.979 v 5.979 c 0,10.802 -8.758,19.56 -19.56,19.56 h -52.16 c -10.802,0 -19.559,-8.758 -19.559,-19.56 v -5.979 c 0,-3.299 -2.552,-5.979 -5.704,-5.979 H 19.56 C 8.757,30.156 0,38.914 0,49.716 v 457.501 c 0,10.802 8.757,19.56 19.56,19.56 h 5.704 c 3.152,0 5.704,-2.675 5.704,-5.979 v -5.979 c 0,-10.802 8.758,-19.56 19.56,-19.56 h 52.161 c 4.443,0 8.531,1.487 11.812,3.99 2.687,2.051 4.217,7.143 4.217,10.521 v 11.426 c 0,3.379 2.742,6.12 6.12,6.12 h 307.799 c 3.378,0 6.12,-2.741 6.12,-6.12 V 509.77 c 0,-3.378 1.53,-8.47 4.217,-10.521 3.28,-2.503 7.368,-3.99 11.812,-3.99 h 52.161 c 10.802,0 19.56,8.758 19.56,19.56 v 5.979 c 0,3.304 2.552,5.979 5.703,5.979 h 5.704 c 10.802,0 19.56,-8.758 19.56,-19.56 V 49.716 c 0.003,-10.802 -8.755,-19.56 -19.563,-19.56 z M 122.253,433.317 c 0,10.802 -8.758,19.56 -19.56,19.56 h -52.16 c -10.802,0 -19.56,-8.758 -19.56,-19.56 v -52.161 c 0,-10.802 8.758,-19.56 19.56,-19.56 h 52.161 c 10.802,0 19.56,8.758 19.56,19.56 v 52.161 z m 0,-130.405 c 0,10.802 -8.758,19.56 -19.56,19.56 h -52.16 c -10.802,0 -19.56,-8.758 -19.56,-19.56 v -52.16 c 0,-10.802 8.758,-19.56 19.56,-19.56 h 52.161 c 10.802,0 19.56,8.757 19.56,19.56 v 52.16 z m 0,-130.398 c 0,10.802 -8.758,19.56 -19.56,19.56 h -52.16 c -10.802,0 -19.56,-8.758 -19.56,-19.56 v -52.161 c 0,-10.802 8.758,-19.56 19.56,-19.56 h 52.161 c 10.802,0 19.56,8.758 19.56,19.56 v 52.161 z m 404.251,260.803 c 0,10.802 -8.758,19.56 -19.56,19.56 h -52.161 c -10.802,0 -19.56,-8.758 -19.56,-19.56 v -52.161 c 0,-10.802 8.758,-19.56 19.56,-19.56 h 52.161 c 10.802,0 19.56,8.758 19.56,19.56 z m 0,-130.405 c 0,10.802 -8.758,19.56 -19.56,19.56 h -52.161 c -10.802,0 -19.56,-8.758 -19.56,-19.56 v -52.16 c 0,-10.802 8.758,-19.56 19.56,-19.56 h 52.161 c 10.802,0 19.56,8.757 19.56,19.56 z m 0,-130.398 c 0,10.802 -8.758,19.56 -19.56,19.56 h -52.161 c -10.802,0 -19.56,-8.758 -19.56,-19.56 v -52.161 c 0,-10.802 8.758,-19.56 19.56,-19.56 h 52.161 c 10.802,0 19.56,8.758 19.56,19.56 z"
   style="fill:#45a1ff;fill-opacity:1" />

	</g>

</g>
    <g
       transform="matrix(0.08969028,0,0,0.10057124,0,243.96718)"
       id="g6420"
       style="fill:#bebebe;fill-opacity:1">
</g>
    <g
       transform="matrix(0.08969028,0,0,0.10057124,0,243.96718)"
       id="g6422"
       style="fill:#bebebe;fill-opacity:1">
</g>
    <g
       transform="matrix(0.08969028,0,0,0.10057124,0,243.96718)"
       id="g6424"
       style="fill:#bebebe;fill-opacity:1">
</g>
    <g
       transform="matrix(0.08969028,0,0,0.10057124,0,243.96718)"
       id="g6426"
       style="fill:#bebebe;fill-opacity:1">
</g>
    <g
       transform="matrix(0.08969028,0,0,0.10057124,0,243.96718)"
       id="g6428"
       style="fill:#bebebe;fill-opacity:1">
</g>
    <g
       transform="matrix(0.08969028,0,0,0.10057124,0,243.96718)"
       id="g6430"
       style="fill:#bebebe;fill-opacity:1">
</g>
    <g
       transform="matrix(0.08969028,0,0,0.10057124,0,243.96718)"
       id="g6432"
       style="fill:#bebebe;fill-opacity:1">
</g>
    <g
       transform="matrix(0.08969028,0,0,0.10057124,0,243.96718)"
       id="g6434"
       style="fill:#bebebe;fill-opacity:1">
</g>
    <g
       transform="matrix(0.08969028,0,0,0.10057124,0,243.96718)"
       id="g6436"
       style="fill:#bebebe;fill-opacity:1">
</g>
    <g
       transform="matrix(0.08969028,0,0,0.10057124,0,243.96718)"
       id="g6438"
       style="fill:#bebebe;fill-opacity:1">
</g>
    <g
       transform="matrix(0.08969028,0,0,0.10057124,0,243.96718)"
       id="g6440"
       style="fill:#bebebe;fill-opacity:1">
</g>
    <g
       transform="matrix(0.08969028,0,0,0.10057124,0,243.96718)"
       id="g6442"
       style="fill:#bebebe;fill-opacity:1">
</g>
    <g
       transform="matrix(0.08969028,0,0,0.10057124,0,243.96718)"
       id="g6444"
       style="fill:#bebebe;fill-opacity:1">
</g>
    <g
       transform="matrix(0.08969028,0,0,0.10057124,0,243.96718)"
       id="g6446"
       style="fill:#bebebe;fill-opacity:1">
</g>
    <g
       transform="matrix(0.08969028,0,0,0.10057124,0,243.96718)"
       id="g6448"
       style="fill:#bebebe;fill-opacity:1">
</g>
  </g>
</svg>
