<?xml version="1.0" encoding="UTF-8" standalone="no"?>
<!-- Created with Inkscape (http://www.inkscape.org/) -->

<svg
   xmlns:dc="http://purl.org/dc/elements/1.1/"
   xmlns:cc="http://creativecommons.org/ns#"
   xmlns:rdf="http://www.w3.org/1999/02/22-rdf-syntax-ns#"
   xmlns:svg="http://www.w3.org/2000/svg"
   xmlns="http://www.w3.org/2000/svg"
   xmlns:sodipodi="http://sodipodi.sourceforge.net/DTD/sodipodi-0.dtd"
   xmlns:inkscape="http://www.inkscape.org/namespaces/inkscape"
   width="50mm"
   height="50mm"
   viewBox="0 0 50 50"
   version="1.1"
   id="svg5805"
   inkscape:version="0.92.3 (2405546, 2018-03-11)"
   sodipodi:docname="film.svg">
  <defs
     id="defs5799" />
  <sodipodi:namedview
     id="base"
     pagecolor="#ffffff"
     bordercolor="#666666"
     borderopacity="1.0"
     inkscape:pageopacity="0.0"
     inkscape:pageshadow="2"
     inkscape:zoom="4.7734375"
     inkscape:cx="94.373932"
     inkscape:cy="32.957669"
     inkscape:document-units="mm"
     inkscape:current-layer="layer1"
     showgrid="false"
     inkscape:window-width="3840"
     inkscape:window-height="2066"
     inkscape:window-x="-11"
     inkscape:window-y="-11"
     inkscape:window-maximized="1" />
  <metadata
     id="metadata5802">
    <rdf:RDF>
      <cc:Work
         rdf:about="">
        <dc:format>image/svg+xml</dc:format>
        <dc:type
           rdf:resource="http://purl.org/dc/dcmitype/StillImage" />
        <dc:title></dc:title>
      </cc:Work>
    </rdf:RDF>
  </metadata>
  <g
     inkscape:label="Layer 1"
     inkscape:groupmode="layer"
     id="layer1"
     transform="translate(0,-247)">
    <g
       style="fill:#bebebe;fill-opacity:1"
       id="g6418"
       transform="matrix(0.08969028,0,0,0.10057124,0,243.96718)">
	<g
   style="fill:#bebebe;fill-opacity:1"
   id="g6416">
		<path
   style="fill:#bebebe;fill-opacity:1"
   inkscape:connector-curvature="0"
   d="m 537.911,30.156 h -5.704 c -3.151,0 -5.703,2.674 -5.703,5.979 v 5.979 c 0,10.802 -8.758,19.56 -19.56,19.56 h -52.161 c -10.802,0 -19.56,-8.758 -19.56,-19.56 v -5.979 c 0,-3.299 -2.552,-5.979 -5.704,-5.979 h -5.703 -290.149 -5.704 c -3.152,0 -5.704,2.674 -5.704,5.979 v 5.979 c 0,10.802 -8.758,19.56 -19.56,19.56 h -52.16 c -10.802,0 -19.559,-8.758 -19.559,-19.56 v -5.979 c 0,-3.299 -2.552,-5.979 -5.704,-5.979 H 19.56 C 8.757,30.156 0,38.914 0,49.716 v 457.501 c 0,10.802 8.757,19.56 19.56,19.56 h 5.704 c 3.152,0 5.704,-2.675 5.704,-5.979 v -5.979 c 0,-10.802 8.758,-19.56 19.56,-19.56 h 52.161 c 4.443,0 8.531,1.487 11.812,3.99 2.687,2.051 4.217,7.143 4.217,10.521 v 11.426 c 0,3.379 2.742,6.12 6.12,6.12 h 307.799 c 3.378,0 6.12,-2.741 6.12,-6.12 V 509.77 c 0,-3.378 1.53,-8.47 4.217,-10.521 3.28,-2.503 7.368,-3.99 11.812,-3.99 h 52.161 c 10.802,0 19.56,8.758 19.56,19.56 v 5.979 c 0,3.304 2.552,5.979 5.703,5.979 h 5.704 c 10.802,0 19.56,-8.758 19.56,-19.56 V 49.716 c 0.003,-10.802 -8.755,-19.56 -19.563,-19.56 z M 122.253,433.317 c 0,10.802 -8.758,19.56 -19.56,19.56 h -52.16 c -10.802,0 -19.56,-8.758 -19.56,-19.56 v -52.161 c 0,-10.802 8.758,-19.56 19.56,-19.56 h 52.161 c 10.802,0 19.56,8.758 19.56,19.56 v 52.161 z m 0,-130.405 c 0,10.802 -8.758,19.56 -19.56,19.56 h -52.16 c -10.802,0 -19.56,-8.758 -19.56,-19.56 v -52.16 c 0,-10.802 8.758,-19.56 19.56,-19.56 h 52.161 c 10.802,0 19.56,8.757 19.56,19.56 v 52.16 z m 0,-130.398 c 0,10.802 -8.758,19.56 -19.56,19.56 h -52.16 c -10.802,0 -19.56,-8.758 -19.56,-19.56 v -52.161 c 0,-10.802 8.758,-19.56 19.56,-19.56 h 52.161 c 10.802,0 19.56,8.758 19.56,19.56 v 52.161 z m 404.251,260.803 c 0,10.802 -8.758,19.56 -19.56,19.56 h -52.161 c -10.802,0 -19.56,-8.758 -19.56,-19.56 v -52.161 c 0,-10.802 8.758,-19.56 19.56,-19.56 h 52.161 c 10.802,0 19.56,8.758 19.56,19.56 z m 0,-130.405 c 0,10.802 -8.758,19.56 -19.56,19.56 h -52.161 c -10.802,0 -19.56,-8.758 -19.56,-19.56 v -52.16 c 0,-10.802 8.758,-19.56 19.56,-19.56 h 52.161 c 10.802,0 19.56,8.757 19.56,19.56 z m 0,-130.398 c 0,10.802 -8.758,19.56 -19.56,19.56 h -52.161 c -10.802,0 -19.56,-8.758 -19.56,-19.56 v -52.161 c 0,-10.802 8.758,-19.56 19.56,-19.56 h 52.161 c 10.802,0 19.56,8.758 19.56,19.56 z"
   id="path6414"
   sodipodi:nodetypes="sssssssssccssssssssssssssssscsssssscssssssscscssssssscccssssssscccsssssssccsssssssssssssssssssssssssss" />

	</g>

</g>
    <g
       style="fill:#bebebe;fill-opacity:1"
       id="g6420"
       transform="matrix(0.08969028,0,0,0.10057124,0,243.96718)">
</g>
    <g
       style="fill:#bebebe;fill-opacity:1"
       id="g6422"
       transform="matrix(0.08969028,0,0,0.10057124,0,243.96718)">
</g>
    <g
       style="fill:#bebebe;fill-opacity:1"
       id="g6424"
       transform="matrix(0.08969028,0,0,0.10057124,0,243.96718)">
</g>
    <g
       style="fill:#bebebe;fill-opacity:1"
       id="g6426"
       transform="matrix(0.08969028,0,0,0.10057124,0,243.96718)">
</g>
    <g
       style="fill:#bebebe;fill-opacity:1"
       id="g6428"
       transform="matrix(0.08969028,0,0,0.10057124,0,243.96718)">
</g>
    <g
       style="fill:#bebebe;fill-opacity:1"
       id="g6430"
       transform="matrix(0.08969028,0,0,0.10057124,0,243.96718)">
</g>
    <g
       style="fill:#bebebe;fill-opacity:1"
       id="g6432"
       transform="matrix(0.08969028,0,0,0.10057124,0,243.96718)">
</g>
    <g
       style="fill:#bebebe;fill-opacity:1"
       id="g6434"
       transform="matrix(0.08969028,0,0,0.10057124,0,243.96718)">
</g>
    <g
       style="fill:#bebebe;fill-opacity:1"
       id="g6436"
       transform="matrix(0.08969028,0,0,0.10057124,0,243.96718)">
</g>
    <g
       style="fill:#bebebe;fill-opacity:1"
       id="g6438"
       transform="matrix(0.08969028,0,0,0.10057124,0,243.96718)">
</g>
    <g
       style="fill:#bebebe;fill-opacity:1"
       id="g6440"
       transform="matrix(0.08969028,0,0,0.10057124,0,243.96718)">
</g>
    <g
       style="fill:#bebebe;fill-opacity:1"
       id="g6442"
       transform="matrix(0.08969028,0,0,0.10057124,0,243.96718)">
</g>
    <g
       style="fill:#bebebe;fill-opacity:1"
       id="g6444"
       transform="matrix(0.08969028,0,0,0.10057124,0,243.96718)">
</g>
    <g
       style="fill:#bebebe;fill-opacity:1"
       id="g6446"
       transform="matrix(0.08969028,0,0,0.10057124,0,243.96718)">
</g>
    <g
       style="fill:#bebebe;fill-opacity:1"
       id="g6448"
       transform="matrix(0.08969028,0,0,0.10057124,0,243.96718)">
</g>
  </g>
</svg>
